<?xml version="1.0" encoding="UTF-8"?>
<svg width="123px" height="89px" viewBox="0 0 123 89" version="1.1" xmlns="http://www.w3.org/2000/svg" xmlns:xlink="http://www.w3.org/1999/xlink">
    <!-- Generator: Sketch 47.1 (45422) - http://www.bohemiancoding.com/sketch -->
    <title>Fill 1</title>
    <desc>Created with Sketch.</desc>
    <defs></defs>
    <g id="Main" stroke="none" stroke-width="1" fill="none" fill-rule="evenodd">
        <g id="UWP-Full-Screen-Free---Main-not-connected" transform="translate(-622.000000, -82.000000)" fill="#FFFFFF">
            <path d="M706.790281,119.19215 C712.828166,122.071046 718.382536,126.003797 723.072625,130.796838 C723.075647,130.796838 711.510589,142.764076 710.909218,143.224946 C708.944941,141.175614 706.778193,139.350571 704.448258,137.768254 C705.814186,133.746401 706.566655,129.232955 706.566655,124.212552 C706.566655,122.298409 706.714731,120.703801 706.790281,119.19215 L706.790281,119.19215 Z M683.128298,157.951255 C688.619208,156.316705 693.336495,153.579142 697.077687,149.833811 C698.428505,150.789346 699.743059,151.898505 700.997175,153.198157 L683.578571,171 L666.156946,153.198157 C667.154194,152.178099 668.233035,151.265578 669.354184,150.432941 C673.243452,153.871026 677.939585,156.405807 683.128298,157.951255 L683.128298,157.951255 Z M685.352464,124.673421 L677.105523,132.431387 C674.328338,127.564608 680.139575,121.733076 685.352464,124.673421 L685.352464,124.673421 Z M676.449757,135.657472 L681.955776,130.480374 L685.996143,134.705009 C686.558228,135.233473 687.340917,135.519212 688.147781,135.494632 C688.900251,135.473125 689.559039,135.168951 690.054641,134.701937 C690.659034,134.139676 691.018648,133.340836 691.012604,132.541996 C691.00656,131.700142 690.68321,131.054925 690.281288,130.606345 L690.238981,130.557186 L688.812614,131.899852 C689.190359,132.296199 689.175249,132.922981 688.77635,133.297822 C688.377451,133.672662 687.74586,133.6573 687.365093,133.260952 C687.319763,133.22101 687.277456,133.177996 687.23817,133.131909 C687.23817,133.131909 684.914279,130.698519 683.400275,129.119274 L688.63734,124.191045 C685.367574,121.137018 680.233256,121.00183 677.032996,124.074291 C673.832735,127.143681 673.436858,132.121069 676.449757,135.657472 L676.449757,135.657472 Z M699.715862,114.251631 C700.625473,117.228847 701.130141,120.433424 701.130141,123.78548 C701.130141,137.092312 693.273033,148.177754 682.681048,151.370042 C672.089062,148.177754 664.231954,137.092312 664.231954,123.78548 C664.231954,120.433424 664.730578,117.228847 665.643212,114.251631 C676.150582,107.817896 689.211513,107.817896 699.715862,114.251631 L699.715862,114.251631 Z M667.918751,110.945662 L667.918751,105.611869 C667.918751,97.2056133 674.542897,90.3601685 682.681048,90.3601685 C690.82222,90.3601685 697.443344,97.2056133 697.443344,105.611869 L697.443344,110.945662 C695.074124,109.827286 692.602157,109.016156 690.060685,108.472331 L690.060685,105.611869 C690.060685,101.402596 686.757678,97.9860186 682.681048,97.9860186 C678.604417,97.9860186 675.30141,101.405669 675.30141,105.611869 L675.30141,108.472331 C672.76296,109.016156 670.287971,109.827286 667.918751,110.945662 L667.918751,110.945662 Z M658.447914,119.871164 C658.27264,121.186177 658.181981,122.584147 658.181981,124.212552 C658.181981,129.63852 659.185273,134.493009 660.971254,138.754514 C659.239669,140.017296 657.604786,141.406048 656.093804,142.920772 L644.078473,130.489592 L644.229571,130.335969 C648.357575,126.120551 653.174586,122.58722 658.447914,119.871164 L658.447914,119.871164 Z M732.987691,120.670004 C732.836593,120.670004 732.688517,120.516381 732.537418,120.362758 C724.447619,111.999517 714.194094,105.799289 702.973539,102.413436 C701.909808,92.206718 693.42111,84.2213899 683.128298,84.2213899 C672.267358,84.2213899 663.419046,91.6290952 663.192398,102.613146 C652.449315,105.968274 642.42848,111.981082 634.317527,120.362758 L634.166429,120.516381 L622,108.238823 L622.151098,108.0852 C639.270527,91.2081679 660.596531,82 683.427473,82 C705.502924,82 728.031669,91.3587185 745,108.392447 L732.987691,120.670004 Z" id="Fill-1"></path>
        </g>
    </g>
</svg>