<?xml version="1.0" encoding="UTF-8" standalone="no"?>
<svg width="45px" height="45px" viewBox="0 0 45 45" version="1.1" xmlns="http://www.w3.org/2000/svg" xmlns:xlink="http://www.w3.org/1999/xlink" xmlns:sketch="http://www.bohemiancoding.com/sketch/ns">
    <title>VPN</title>
    <description>Created with Sketch (http://www.bohemiancoding.com/sketch)</description>
    <defs></defs>
    <g id="Page-1" stroke="none" stroke-width="1" fill="none" fill-rule="evenodd" sketch:type="MSPage">
        <g id="logo-vpn2" sketch:type="MSLayerGroup">
            <g id="BG" sketch:type="MSShapeGroup">
                <path d="M4.5,44.4375 C2.3625,44.4375 0.5625,42.6375 0.5625,40.5 L0.5625,4.5 C0.5625,2.3625 2.3625,0.5625 4.5,0.5625 L40.5,0.5625 C42.6375,0.5625 44.4375,2.3625 44.4375,4.5 L44.4375,40.5 C44.4375,42.6375 42.6375,44.4375 40.5,44.4375 L4.5,44.4375 L4.5,44.4375 Z" id="XMLID_58_" fill="#23BE04"></path>
                <path d="M40.5,1.125 C42.4125,1.125 43.875,2.5875 43.875,4.5 L43.875,40.5 C43.875,42.4125 42.4125,43.875 40.5,43.875 L4.5,43.875 C2.5875,43.875 1.125,42.4125 1.125,40.5 L1.125,4.5 C1.125,2.5875 2.5875,1.125 4.5,1.125 L40.5,1.125 L40.5,1.125 Z M40.5,0 L4.5,0 C2.025,0 0,2.025 0,4.5 L0,40.5 C0,42.975 2.025,45 4.5,45 L40.5,45 C42.975,45 45,42.975 45,40.5 L45,4.5 C45,2.025 42.975,0 40.5,0 L40.5,0 L40.5,0 Z" id="XMLID_52_" fill="#21A307"></path>
            </g>
            <g id="WiFi" transform="translate(5.625000, 10.125000)" fill="#FFFFFF" sketch:type="MSShapeGroup">
                <g id="XMLID_50_">
                    <path d="M16.875,0 C10.575,0 4.725,2.5875 0,7.2 L0,7.2 L3.375,10.575 L3.375,10.575 C6.975,6.8625 11.925,4.725 16.875,4.725 C21.9375,4.725 26.8875,6.8625 30.375,10.575 L30.4875,10.6875 L33.75,7.3125 C29.1375,2.5875 22.95,0 16.875,0 L16.875,0 Z M6.075,13.3875 L6.075,13.3875 L9.3375,16.875 C11.25,14.9625 13.95,13.6125 16.875,13.6125 C19.8,13.6125 22.5,14.85 24.4125,16.9875 C24.525,16.875 27.7875,13.5 27.7875,13.5 C24.975,10.575 20.925,8.775 16.875,8.775 C12.7125,8.8875 8.8875,10.575 6.075,13.3875 L6.075,13.3875 Z M12.15,19.8 L16.875,24.75 L21.6,19.8 C18.675,16.65 14.625,17.2125 12.15,19.8 L12.15,19.8 Z" id="XMLID_51_"></path>
                </g>
            </g>
            <g id="Lock" transform="translate(15.750000, 11.250000)" sketch:type="MSShapeGroup">
                <path d="M6.75,19.6875 L6.6375,19.6875 C3.0375,18.675 0.5625,15.075 0.5625,11.025 C0.5625,10.0125 0.675,9 1.0125,7.9875 C1.0125,7.875 1.125,7.7625 1.2375,7.65 C1.35,7.5375 1.575,7.425 1.6875,7.425 L1.6875,7.2 L1.6875,5.625 C1.6875,2.8125 3.9375,0.5625 6.75,0.5625 C9.5625,0.5625 11.8125,2.8125 11.8125,5.625 L11.8125,7.2 L11.8125,7.425 C11.925,7.5375 12.15,7.65 12.2625,7.65 C12.375,7.7625 12.4875,7.875 12.4875,7.9875 C12.825,9 12.9375,9.9 12.9375,11.025 C12.9375,15.075 10.4625,18.675 6.8625,19.6875 C6.8625,19.6875 6.75,19.6875 6.75,19.6875 L6.75,19.6875 Z M6.75,6.1875 C7.3125,6.1875 7.875,6.1875 8.4375,6.3 L8.4375,5.625 C8.4375,4.725 7.65,3.9375 6.75,3.9375 C5.85,3.9375 5.0625,4.725 5.0625,5.625 L5.0625,6.3 C5.625,6.1875 6.1875,6.1875 6.75,6.1875 L6.75,6.1875 Z" id="XMLID_75_" fill="#FFFFFF"></path>
                <path d="M6.75,1.125 C9.225,1.125 11.25,3.15 11.25,5.625 L11.25,7.2 C10.575,6.8625 9.7875,6.6375 9,6.525 L9,5.625 C9,4.3875 7.9875,3.375 6.75,3.375 C5.5125,3.375 4.5,4.3875 4.5,5.625 L4.5,6.4125 C3.7125,6.525 2.925,6.8625 2.25,7.0875 L2.25,5.625 C2.25,3.15 4.275,1.125 6.75,1.125 L6.75,1.125 Z M6.75,6.75 C8.55,6.75 10.35,7.2 11.925,8.2125 C12.15,9.1125 12.375,10.0125 12.375,11.025 C12.375,14.9625 10.0125,18.225 6.75,19.125 C3.4875,18.225 1.125,14.9625 1.125,11.025 C1.125,10.0125 1.2375,9.1125 1.575,8.2125 C3.15,7.2 4.95,6.75 6.75,6.75 L6.75,6.75 Z M6.75,-1.77635684e-15 C3.6,-1.77635684e-15 1.125,2.475 1.125,5.625 L1.125,7.0875 C1.125,7.0875 1.0125,7.0875 1.0125,7.2 C0.7875,7.3125 0.5625,7.5375 0.5625,7.875 C0.225,8.8875 0.1125,9.9 0.1125,11.025 C0.1125,15.3 2.8125,19.125 6.525,20.25 L6.8625,20.25 L7.2,20.25 C11.025,19.125 13.6125,15.3 13.6125,11.025 C13.6125,9.9 13.5,8.8875 13.1625,7.875 C13.05,7.65 12.9375,7.425 12.7125,7.2 C12.7125,7.2 12.6,7.2 12.6,7.0875 L12.6,5.625 C12.375,2.475 9.9,-1.77635684e-15 6.75,-1.77635684e-15 L6.75,-1.77635684e-15 L6.75,-1.77635684e-15 Z M5.625,5.625 L5.625,5.625 C5.625,4.95 6.075,4.3875 6.75,4.3875 C7.425,4.3875 7.875,4.8375 7.875,5.5125 L7.875,5.5125 L6.75,5.5125 C6.4125,5.625 5.9625,5.625 5.625,5.625 L5.625,5.625 L5.625,5.625 Z" id="XMLID_70_" fill="#23BE04"></path>
            </g>
            <path d="M25.65,23.625 L25.65,23.625 L25.0875,24.1875 C25.2,24.3 25.2,24.6375 25.0875,24.75 C24.975,24.8625 24.6375,24.8625 24.525,24.75 L24.525,24.75 C24.525,24.75 23.625,23.7375 22.95,23.0625 L25.0875,21.0375 C23.7375,19.8 21.7125,19.6875 20.3625,21.0375 C19.0125,22.275 18.9,24.3 20.1375,25.7625 L22.3875,23.625 L24.075,25.3125 C24.3,25.5375 24.6375,25.65 24.975,25.65 C25.3125,25.65 25.5375,25.5375 25.7625,25.3125 C25.9875,25.0875 26.1,24.75 26.1,24.4125 C25.875,24.075 25.7625,23.85 25.65,23.625 L25.65,23.625 Z M23.625,21.2625 L20.25,24.4125 C19.125,22.3875 21.4875,20.025 23.625,21.2625 L23.625,21.2625 Z" id="Umbrella" fill="#23BE04" sketch:type="MSShapeGroup"></path>
        </g>
    </g>
</svg>