<svg xmlns="http://www.w3.org/2000/svg" width="126" height="89" viewBox="0 0 126 89">
  <defs>
    <style>
      .cls-1 {
        fill: #c2ccd0;
        fill-rule: evenodd;
      }
    </style>
  </defs>
  <path id="Shape_1_copy_2" data-name="Shape 1 copy 2" class="cls-1" d="M112.808,38.679a0.808,0.808,0,0,1-.458-0.307,70.116,70.116,0,0,0-99.814,0l-0.154.153L0.02,26.25,0.173,26.1C17.571,9.219,39.243.013,62.442,0.013c22.434,0,45.328,9.359,62.574,26.391ZM90.372,61.235A38.748,38.748,0,0,0,62.443,49.268a39.651,39.651,0,0,0-27.778,11.66L22.456,48.5l0.152-.153A56.436,56.436,0,0,1,62.442,31.774a57.734,57.734,0,0,1,40.291,17.032S90.982,60.773,90.372,61.235ZM62.6,89.006l-17.7-17.8c9.31-9.359,24.419-11.2,35.408,0Z"/>
</svg>
